<svg xmlns="http://www.w3.org/2000/svg" fill="none" viewBox="0 0 280 280"><circle cx="140" cy="140" r="113" fill="#5FC69B"/><mask id="a" width="226" height="226" x="27" y="27" maskUnits="userSpaceOnUse"><circle cx="140" cy="140" r="113" fill="#fff"/></mask><g mask="url(#a)"><path fill="#763D2A" d="M103.36 123.077c-6.67 0-14.191-.667-18.744-5.603-4.302-4.67-4.636-11.957-2.602-17.96a9.42 9.42 0 0 0 .801-3.586c-.133-2.084-1.784-3.685-3.018-5.353a18.194 18.194 0 0 1-1.668-17.427 26.682 26.682 0 0 1 12.44-12.89c3.035-1.668 6.304-2.735 9.272-4.47 2.669-1.567 5.003-3.618 8.038-4.602 6.954-2.318 14.225 1.984 21.479 3.035 3.502.517 7.054.25 10.556.617a29.753 29.753 0 0 1 14.492 5.636 12.191 12.191 0 0 1 3.952 4.353 15.023 15.023 0 0 1 1.101 5.17l1.2 13.174c.367 2.404.367 4.85 0 7.254-1.1 5.27-5.453 9.172-9.689 12.507a211.115 211.115 0 0 1-17.393 12.307c-6.003 3.802-12.574 7.404-19.678 7.354"/><path fill="#fff" d="M238.307 169.904c-6.428-27-18.041-37.638-20.031-40.732-1.985-2.388-14.061-11.055-16.81-12.499a82.274 82.274 0 0 0-79.628-.833l-4.236 9.122c-18.537 11.749-31.11 22.624-47.944 36.706-6.346 8.236-11.14 13.318-13.538 21.842-6.582 23.405.898 31.708-7.724 35.693.289 24.462 13.318 5.662 18.76 29.512a6.668 6.668 0 0 0 2.502 4.586 6.781 6.781 0 0 0 4.086.434l71.467 15.869 73.065-31.011a8.337 8.337 0 0 0 5.453-1.951 8.122 8.122 0 0 0 1.668-5.003c2.751-33.319 20.648-29.233 12.91-61.735Z"/><path fill="#D8D8D8" d="M109.031 130.049a689.365 689.365 0 0 0 42.407 61.034c2.718-27.615 5.437-55.648.667-82.997a352.321 352.321 0 0 0-33.936 14.592"/><path stroke="#252D37" d="M94.189 140.403a209.43 209.43 0 0 0 8.671 27.549 80.44 80.44 0 0 1 12.307-6.07l-4.136 11.29a4.22 4.22 0 0 0-.366 2.201 4.068 4.068 0 0 0 1.317 1.918 128.414 128.414 0 0 0 39.639 26.232m2.935-97.939c16.059 4.069 23.747 27.332 22.946 27.749a261.165 261.165 0 0 1-12.157 5.954l7.655 4.152a3.87 3.87 0 0 1 1.4 1.067 3.966 3.966 0 0 1 .167 3.335 289.5 289.5 0 0 1-16.109 48.245"/><path fill="#E67C40" d="M137.847 74.1V74c-1.384-2.569-1.751-5.804-3.953-7.705a7.082 7.082 0 0 0-5.736-1.35 15.333 15.333 0 0 0-5.553 2.384c-3.702 2.385-6.971 5.453-10.873 7.488-3.902 2.034-8.638 3.018-13.058 4.319-2.718.784-5.603 1.9-7.087 4.319-1.751 2.885-.917 6.57-.15 9.872.634 2.735 1.2 5.503 1.668 8.338a48.04 48.04 0 0 0 1.3 7.788 59.076 59.076 0 0 0 2.869 6.587 10.65 10.65 0 0 0 3.035 4.286c2.551 1.668 4.669 5.67 7.104 7.754a37.97 37.97 0 0 0 18.177 8.722c4.215.837 8.58.485 12.607-1.017 6.987-2.885 11.473-10.206 13.491-17.727a43.104 43.104 0 0 0 1.217-15.659c-.25-2.518-1.267-5.153-1.267-7.671a20.2 20.2 0 0 0-2.718-8.038c-1.668-3.168-4.753-5.536-7.254-8.021a20.787 20.787 0 0 1-3.819-4.57Z"/><path fill="#763D2A" d="M91.404 105.485c1.934 4.669 10.006 7.204 15.008 6.554 5.003-.651 9.556-3.186 14.225-5.137a86.649 86.649 0 0 0 11.106-4.836 53.934 53.934 0 0 0 18.027-19.928c1.485 3.986 3.519 7.688 5.003 11.673a41.084 41.084 0 0 1-.367 27.366c-.533 1.418-1.234 2.752-1.667 4.202-.434 1.451-.467 3.019-.734 4.536a18.03 18.03 0 0 1-18.781 14.946 18.022 18.022 0 0 1-8.284-2.555 15.777 15.777 0 0 0-4.586-2.368c-1.334-.284-2.735 0-4.069-.25-2.885-.434-5.12-2.702-6.988-5.003-6.787-8.055-14.558-15.859-17.893-25.865"/><path fill="#252D37" d="M138.647 106.117a1.779 1.779 0 0 0-.584-.917 1.664 1.664 0 0 0-1.334-.15c-2.951.55-5.253 2.735-7.721 4.419a26.294 26.294 0 0 1-12.374 4.536l-.783.367c-1.468 1.401-.934 3.969.417 5.47 2.318 2.568 6.303 3.035 9.655 2.151a19.828 19.828 0 0 0 10.273-7.354c1.901-2.485 3.385-5.587 2.451-8.522Z"/><path fill="#fff" d="M101.159 98.813a6.07 6.07 0 0 0-1.484 2.768 2.57 2.57 0 0 0 1.2 2.702 4.01 4.01 0 0 0 3.669-.851l3.185-2.001c1.384-.867 2.919-2.001 2.969-3.619.05-1.617-2.618-7.337-9.539 1Zm34.92-13.858a5.95 5.95 0 0 1 3.185.634 2.434 2.434 0 0 1 1.001 2.885 5.238 5.238 0 0 1-3.552 2.518l-4.003 1.3c-1.667.551-3.785 1.068-5.002 0-1.218-1.067-3.252-7.287 8.371-7.337Z"/><path fill="#252D37" d="M105.578 100.481a2.501 2.501 0 1 0 0-5.003 2.501 2.501 0 0 0 0 5.003Zm28.349-10.005a2.501 2.501 0 1 0 0-5.003 2.501 2.501 0 0 0 0 5.003Z"/><path fill="#E67C40" d="M211.447 228.039c-3.652-6.504-7.838-12.791-10.823-19.495a18.837 18.837 0 0 0-14.241-10.422c-6.504-1.184-13.158 0-19.711.85-5.487.717-11.223 1.268-15.943 4.119-4.719 2.852-10.723 13.458-5.336 17.927 6.804 5.637 18.644 1.885 26.682 4.186 7.637 2.184 13.341 8.438 18.56 14.425a3.724 3.724 0 0 0 1.868 1.384 3.623 3.623 0 0 0 2.235-.55 54.281 54.281 0 0 0 14.875-11.023"/><path fill="#763D2A" d="M100.042 95.995a28.338 28.338 0 0 1 6.587-4.502c.4-.217.851-.484.917-.951.004-.2-.036-.4-.116-.584a4.507 4.507 0 0 0-1.034-1.567 1.068 1.068 0 0 0-.534-.367 1.169 1.169 0 0 0-.634 0 13.67 13.67 0 0 0-6.453 3.652 8.19 8.19 0 0 0-2.235 2.918c-.133.284-1.117 3.502-.634 3.569 1.601.217 2.952-1.017 4.136-2.168Zm36.853-16.559a1.782 1.782 0 0 0-.333-1.2c-1.084-1.501-3.252-1.568-4.903-1.535-1.711.014-3.418.17-5.103.467a12.74 12.74 0 0 0-2.451.767 6.992 6.992 0 0 0-2.035 1.15c-.784.851 0 3.02.901 3.52a2.882 2.882 0 0 0 2.785-.25c.533-.15 1.05-.384 1.567-.568a21.134 21.134 0 0 1 5.003-.983c.851-.1 1.668-.184 2.518-.317.467 0 1.518-.117 1.818-.5.069-.118.114-.249.133-.384a.55.55 0 0 0 .1-.167Z"/><path stroke="#252D37" d="M114.436 90.027a27.82 27.82 0 0 0-1.489 8.934c-.053.447-.014.9.115 1.33.13.431.347.83.638 1.174a2.752 2.752 0 0 0 3.272-.23 17.228 17.228 0 0 1 2.831-2.078"/><path fill="#FED337" d="M83.998 217.851c-4.52-10.682-4.143-25.114-3.11-31.785 27.052-7.381 80.26-10.24 109.041-10.837 6.26 7.193 4.322 23.236 3.11 31.785-33.756 2.579-74.886 5.897-109.04 10.837Z"/><path stroke="#333" d="m111.837 207.465-1.157-20.659m.203.829c5.009-1.165 8.945-.183 9.165 2.041.427 4.329-5.493 5.358-8.6 5.838 3.553-.711 10.816-.227 12.198 2.491 2.076 4.083-4.754 8.761-12.118 8.86M129.264 200.284c-.453-1.095-.518-2.098-.344-2.991.692-3.556 5.858-5.074 8.415-2.509 1.703 1.71 1.306 4.262.701 5.965-.943 2.653-6.837 4.199-8.772-.465Zm20.89-6.701c1.596 1.46 1.887 3.194 1.661 4.709-.327 2.19-2.309 3.815-4.518 3.957-3.98.255-5.07-3.104-5.287-5.377-.268-2.803 4.419-6.697 8.144-3.289ZM155.171 185.125l1.117 16.931m-.352-6.379 7.682-6.738m-5.087 5.036c2.425 2.108 4.559 5.041 6.517 7.293"/></g></svg>