<svg fill="none" xmlns="http://www.w3.org/2000/svg" viewBox="0 0 128 128"><g clip-path="url(#a-dentist)"><circle cx="63.695" cy="63.695" r="63.695" fill="#fff"></circle><path d="M48.844 56.954C38.88 53.446 38.32 45.307 38.32 45.307l9.541-8.98 23.574 8.98 8.98 14.313-6.735 12.067c-11.038 2.152-33.372 6.567-34.4 7.016-1.027.45-10.923-11.646-2.784-13.61 0 0 22.31-4.631 12.348-8.14Z" fill="#FF8A56"></path><path fill-rule="evenodd" clip-rule="evenodd" d="M102.487 59.017c.454 2.058-.852 4.32-3.125 5.853 2.224 1.604 3.457 3.907 2.938 5.95-.719 2.833-4.536 4.095-8.524 2.818-2.955-.947-5.175-3.02-5.835-5.184l-5.617-.09.11-6.913 5.462.087c.465-2.364 2.894-4.675 6.16-5.608 4.027-1.15 7.802.232 8.431 3.087Zm-3.806 1.447a2.47 2.47 0 1 1-4.938 0 2.47 2.47 0 0 1 4.938 0Zm-2.47 10.865a2.47 2.47 0 1 0 0-4.938 2.47 2.47 0 0 0 0 4.938Zm-31.965 1.988a1.122 1.122 0 1 0-2.245-.024c-.033 3.169-.022 6.34-.01 9.503.005 1.578.01 3.153.01 4.725 0 .106-.014.22-.044.426l-.004.022-.009.065c-.277.01-.547.028-.803.045l-.019.001c-.441.029-.842.054-1.24.054h-1.493c-.113 0-.218-.014-.398-.04l-.201-.026c-.262-.035-.657-.08-1.08-.004-.401.07-.831.06-1.4.04l-.046-.002c-.52-.018-1.169-.041-1.82.074-.415.074-.83.11-1.27.14l-.332.022c-.336.021-.696.044-1.043.08-.967.101-2.017.324-3.074 1.027l-.06.04c-.307.203-1.02.674-1.566 1.228-.283.287-.63.701-.793 1.208a1.849 1.849 0 0 0-.058.95c.075.36.258.667.504.912.335.335.755.527 1.126.646.381.122.796.192 1.199.233l.03.003a2.508 2.508 0 0 0-.161.288c-.21.443-.298 1.005-.263 1.512.032.47.198 1.23.864 1.691.55.38 1.136.47 1.611.474a1.807 1.807 0 0 0 .534 1.073c.336.333.757.525 1.129.643.383.122.798.192 1.203.232l.034.004c-.059.09-.113.185-.16.285-.212.443-.3 1.006-.265 1.514.033.471.2 1.233.869 1.692.835.573 1.751.484 2.242.436.074-.007.138-.013.191-.016.077-.004.152-.011.227-.019a3.242 3.242 0 0 0-.002.108c0 1.164.587 2.091 1.496 2.574.87.461 1.926.466 2.871.091 1.515-.6 2.469-1.895 3.191-2.875l.017-.022c.288-.392.925-.953 1.412-1.293.325-.227.505-.343.675-.426.154-.075.332-.139.648-.209 1.261-.278 2.605-.286 4.06-.286a1.122 1.122 0 1 0 0-2.245h-.012c-1.413 0-2.997 0-4.532.339-.437.096-.795.21-1.152.385-.34.167-.646.374-.972.601-.585.409-1.442 1.133-1.935 1.802-.784 1.063-1.39 1.811-2.228 2.142-.428.17-.787.121-.99.013-.162-.086-.304-.242-.304-.591 0-.363.181-.72.602-1.345l.042-.06c.189-.145.353-.29.495-.415l.01-.008c.073-.065.133-.136.148-.154l.002-.002a7.065 7.065 0 0 0 .448-.607c.027-.041.062-.098.095-.16a1.37 1.37 0 0 0 .065-.144l.002-.003a1.17 1.17 0 0 0 .079-.421v-.003c0-.084 0-.618-.485-.968-.555-.4-1.113-.137-1.203-.092-.16.079-.276.179-.33.227a2.39 2.39 0 0 0-.172.174 5.255 5.255 0 0 0-.447.588 3.324 3.324 0 0 1-.234.304l-.021.025-.01.013c-.703.448-1.159.691-1.68.72-.114.006-.244.017-.35.025l-.13.01c-.135.01-.229.013-.306.01a.654.654 0 0 1-.147-.021 1.088 1.088 0 0 1 .042-.43 1.078 1.078 0 0 1 .255-.295 2.55 2.55 0 0 1 .478-.328c.2-.105.386-.22.536-.313l.01-.006c.161-.1.286-.177.413-.244.183-.097.327-.216.413-.29l.011-.01c.096-.019.182-.037.258-.055.095-.022.212-.052.32-.092.042-.016.154-.058.274-.136a1.13 1.13 0 0 0-.096-1.96 1.195 1.195 0 0 0-.282-.103 1.497 1.497 0 0 0-.258-.034 3.655 3.655 0 0 0-.371.005 1.69 1.69 0 0 0-.786.254c-.237.032-.514.065-.813.09-.68.058-1.417.078-2.037.016a4.171 4.171 0 0 1-.638-.107l.028-.028c.376-.379.912-.733 1.236-.947l.042-.028c.642-.424 1.295-.583 2.08-.665.299-.03.592-.049.915-.069l.386-.025a14.1 14.1 0 0 0 1.517-.17c.4-.07.832-.059 1.405-.039l.041.002c.525.018 1.179.041 1.838-.075.062-.01.165-.011.403.02l.107.014c.2.028.501.07.786.07h1.502c.48 0 .95-.03 1.378-.057h.013c.444-.03.844-.055 1.239-.055h.013c.1 0 .251 0 .39-.015a1.4 1.4 0 0 0 .743-.299c.322-.264.423-.602.46-.798a2.56 2.56 0 0 0 .032-.46c0-.104.015-.217.045-.423l.003-.022c.027-.18.065-.444.065-.727 0-1.589-.005-3.173-.01-4.754-.012-3.151-.023-6.292.01-9.444a1.123 1.123 0 1 0-2.245-.024 664.004 664.004 0 0 0-.011 9.498c.006 1.578.011 3.152.011 4.724 0 .105-.014.219-.044.424l-.004.022-.01.065c-.28.011-.553.029-.812.046h-.02c-.442.03-.846.055-1.246.055H63.39c-.115 0-.22-.015-.402-.04a29.301 29.301 0 0 0-.202-.027c-.263-.034-.659-.078-1.082-.004-.405.072-.838.06-1.41.04l-.046-.001c-.523-.019-1.174-.042-1.828.074-.418.073-.835.11-1.279.14l-.333.022a25.5 25.5 0 0 0-1.048.08c-.971.1-2.024.323-3.086 1.025l-.06.039c-.265.174-.83.545-1.331.996a1.119 1.119 0 0 0-.434-.06c-.114.005-.244.016-.35.024h-.001l-.127.01a2.68 2.68 0 0 1-.303.01.581.581 0 0 1-.141-.02 1.1 1.1 0 0 1 .041-.434l.003-.007.002-.004c.02-.04.09-.145.249-.284.15-.132.324-.248.475-.328.2-.105.384-.22.533-.313l.01-.006c.161-.1.285-.177.41-.244a2.22 2.22 0 0 0 .412-.291l.01-.009c.094-.018.18-.036.255-.054.095-.022.211-.053.319-.093.042-.016.155-.058.274-.137a1.13 1.13 0 0 0-.096-1.956 1.193 1.193 0 0 0-.283-.104 1.495 1.495 0 0 0-.258-.035 3.581 3.581 0 0 0-.37.005 1.683 1.683 0 0 0-.785.254c-.236.033-.51.065-.806.09-.676.058-1.408.078-2.024.017a4.112 4.112 0 0 1-.632-.107l.03-.032c.375-.379.907-.733 1.23-.947l.041-.028c.638-.423 1.285-.581 2.065-.663.296-.031.587-.05.908-.07l.384-.024c.465-.032.975-.075 1.51-.17.398-.07.825-.06 1.395-.04l.042.002c.521.019 1.173.042 1.83-.075.06-.01.16-.011.397.02l.106.014c.199.028.5.071.784.071h1.495c.477 0 .945-.03 1.371-.058h.013c.441-.029.84-.054 1.231-.054h.013c.1 0 .25 0 .39-.016.136-.015.453-.061.743-.3.321-.265.421-.603.457-.798a2.57 2.57 0 0 0 .033-.458c0-.106.014-.22.044-.425l.004-.022c.026-.18.064-.444.064-.727 0-1.59-.005-3.173-.01-4.755-.012-3.153-.023-6.296.01-9.45Z" fill="#252D37"></path><rect x="46.722" y="23.918" width="52.15" height="18.273" rx="4.939" transform="rotate(32.33 46.722 23.918)" fill="#FED337"></rect><rect x="31.022" y="68.756" width="52.525" height="15.789" rx="4.939" transform="rotate(-6.74 31.022 68.756)" fill="#FED337"></rect><path fill-rule="evenodd" clip-rule="evenodd" d="M39.25 46.661c2.363 1.364 5.493.362 6.993-2.237 1.5-2.6.8-5.81-1.563-7.174-2.363-1.363-5.494-.361-6.993 2.238-1.5 2.599-.8 5.81 1.563 7.173Zm8.557 4.937c2.362 1.363 5.493.361 6.992-2.238 1.5-2.599.8-5.81-1.563-7.173-2.362-1.363-5.493-.362-6.992 2.237-1.5 2.6-.8 5.811 1.563 7.174Zm15.499 2.784c-1.518 2.534-4.605 3.499-6.942 2.151-2.362-1.363-3.062-4.575-1.563-7.174 1.5-2.599 4.63-3.6 6.993-2.237 2.337 1.348 3.047 4.504 1.612 7.087 1.518-2.534 4.605-3.498 6.942-2.15 2.362 1.362 3.062 4.574 1.563 7.173a5.993 5.993 0 0 1-.543.788c.529.78.877 1.72.969 2.751.267 2.988-1.72 5.608-4.436 5.85-2.717.243-5.136-1.983-5.402-4.972a5.738 5.738 0 0 1 .878-3.641c-1.024-1.569-1.114-3.748-.071-5.626ZM52.57 64.527c.266 2.989-1.72 5.608-4.437 5.85-2.717.243-5.135-1.983-5.402-4.972-.267-2.988 1.72-5.607 4.436-5.85 2.717-.242 5.136 1.984 5.402 4.972ZM38.386 72.15c2.717-.243 4.703-2.862 4.436-5.85-.266-2.989-2.685-5.215-5.402-4.972-2.717.242-4.703 2.861-4.436 5.85.267 2.988 2.685 5.214 5.402 4.972Zm24.112-8.5c.267 2.988-1.72 5.607-4.436 5.85-2.717.242-5.136-1.984-5.402-4.973-.267-2.988 1.72-5.608 4.436-5.85 2.717-.242 5.135 1.984 5.402 4.972Z" fill="#FDFAEE"></path></g><defs><clipPath id="a-dentist"><path fill="#fff" d="M0 0h128v128H0z"></path></clipPath></defs></svg>