<svg fill="none" xmlns="http://www.w3.org/2000/svg" viewBox="0 0 128 128"><g clip-path="url(#a-derm)"><circle cx="63.695" cy="63.695" r="63.695" fill="#fff"></circle><path fill-rule="evenodd" clip-rule="evenodd" d="M77.597 15.738a1.123 1.123 0 1 1 2.232.246l-1.077 9.771a1.123 1.123 0 0 1-2.232-.246l1.078-9.771Zm11.67 3.781c.502.365.613 1.067.248 1.568l-6.162 8.47a1.122 1.122 0 1 1-1.816-1.32l6.162-8.47a1.122 1.122 0 0 1 1.569-.248Zm8.067 8.816c.25.568-.008 1.23-.576 1.48l-8.817 3.872a1.123 1.123 0 1 1-.903-2.056l8.817-3.872c.568-.25 1.23.008 1.48.576Zm-32.365 6.074a3.929 3.929 0 0 0-3.734-.023l-5.826 3.1a4.172 4.172 0 0 0-.88.622 15.837 15.837 0 0 0-6.985 13.178c0 8.721 6.968 15.79 15.562 15.79 8.595 0 15.562-7.069 15.562-15.79 0-6.437-3.796-11.975-9.24-14.434l-4.459-2.443Z" fill="#FF8A56"></path><path fill-rule="evenodd" clip-rule="evenodd" d="M42.343 60.703c-.454-1.25-1.576-2.192-2.905-2.192H24.72a2.806 2.806 0 0 0-2.806 2.807v32.2a2.806 2.806 0 0 0 2.806 2.806h78.604a2.807 2.807 0 0 0 2.807-2.806v-32.2a2.807 2.807 0 0 0-2.807-2.807h-17.74c-1.328 0-2.45.943-2.904 2.192-2.685 7.4-10.699 12.77-20.168 12.77-9.47 0-17.483-5.37-20.169-12.77Z" fill="#FED337"></path><path fill-rule="evenodd" clip-rule="evenodd" d="M64.066 36.663a1.684 1.684 0 0 0-1.835 0l-3.829 2.487c-1.406.913-.76 3.096.917 3.096h7.66c1.676 0 2.322-2.183.916-3.096l-3.83-2.487Zm20.65 48.22a4.21 4.21 0 1 0-.433-8.408 4.21 4.21 0 0 0 .432 8.408Zm15.585-8.388a4.21 4.21 0 1 1-8.41.431 4.21 4.21 0 0 1 8.41-.431Zm-6.889 13.562a3.087 3.087 0 1 0-.316-6.166 3.087 3.087 0 0 0 .316 6.166Z" fill="#FDFAEE"></path><path fill-rule="evenodd" clip-rule="evenodd" d="M52.774 33.868c.837-.496 1.692-1.117 2.53-1.738l.41-.305c.714-.53 1.42-1.057 2.143-1.544 1.747-1.177 3.37-1.971 4.925-1.971.08 0 .16-.009.235-.025.076.016.154.025.235.025 1.555 0 3.178.794 4.925 1.971.723.487 1.43 1.013 2.142 1.544l.411.305c.838.621 1.693 1.242 2.53 1.738 6.43 3.808 10.69 10.334 10.69 17.773a1.123 1.123 0 1 0 2.245 0c0-8.345-4.782-15.553-11.79-19.705-.726-.43-1.497-.986-2.338-1.61l-.397-.295a59.381 59.381 0 0 0-2.238-1.611c-1.807-1.218-3.911-2.356-6.18-2.356-.08 0-.16.009-.235.025a1.13 1.13 0 0 0-.235-.024c-2.269 0-4.373 1.137-6.18 2.354-.77.52-1.525 1.082-2.238 1.612l-.397.295c-.841.624-1.612 1.18-2.337 1.61-7.01 4.152-11.791 11.36-11.791 19.705a1.123 1.123 0 1 0 2.245 0c0-7.44 4.26-13.965 10.69-17.773Z" fill="#252D37"></path></g><defs><clipPath id="a-derm"><path fill="#fff" d="M0 0h128v128H0z"></path></clipPath></defs></svg>