<svg fill="none" xmlns="http://www.w3.org/2000/svg" viewBox="0 0 128 128"><g clip-path="url(#a-eye)"><circle cx="63.695" cy="63.695" r="63.695" fill="#fff"></circle><path fill-rule="evenodd" clip-rule="evenodd" d="M43.553 78.765c9.325 0 17.045-6.87 18.375-15.825h8.662c1.33 8.955 9.05 15.825 18.375 15.825 10.26 0 18.578-8.317 18.578-18.578 0-10.26-8.318-18.577-18.578-18.577-9.085 0-16.646 6.52-18.26 15.138h-8.892c-1.614-8.617-9.175-15.138-18.26-15.138-10.26 0-18.578 8.317-18.578 18.577 0 10.26 8.318 18.578 18.578 18.578Z" fill="#FED337"></path><ellipse cx="88.964" cy="59.843" rx="13.073" ry="12.729" fill="#FDFAEE"></ellipse><ellipse cx="43.551" cy="59.843" rx="13.073" ry="12.729" fill="#FDFAEE"></ellipse><mask id="b-eye" maskUnits="userSpaceOnUse" x="30" y="47" width="27" height="26"><ellipse cx="43.552" cy="59.844" rx="13.073" ry="12.729" fill="#fff"></ellipse></mask><g mask="url(#b-eye)"><ellipse cx="38.393" cy="60.188" rx="8.601" ry="8.945" fill="#252D37"></ellipse></g><path fill-rule="evenodd" clip-rule="evenodd" d="M93.396 60.896c1.055-.597 1.983-1.501 2.931-2.76a1.123 1.123 0 1 1 1.794 1.35c-1.055 1.4-2.202 2.561-3.62 3.364-1.43.809-3.06 1.212-5.019 1.212-1.902 0-3.449-.091-5.289-1.127l-.255-.143-.003-.002c-.517-.287-1.181-.657-1.776-1.083-.68-.486-1.464-1.177-1.812-2.11a1.123 1.123 0 1 1 2.103-.785c.105.28.421.644 1.015 1.07.482.344 1.018.643 1.537.932l.002.002.291.162c1.32.744 2.385.839 4.187.839 1.633 0 2.871-.331 3.914-.921Zm-24.373.875a1.123 1.123 0 0 1 1.488.552c1.749 3.81 3.305 7.647 4.862 11.485l.224.553c.279.687.563 1.299.858 1.934.224.483.454.98.694 1.534.518 1.2.991 2.49 1.199 3.916.166 1.139-.162 2.096-.886 2.79-.662.635-1.556.955-2.376 1.133-1.427.309-3.112.273-4.178.25a55.567 55.567 0 0 0-.421-.008c-2.238-.03-4.618-.22-6.86-.752a5.886 5.886 0 0 0-.32-.053 11.456 11.456 0 0 1-.599-.103 3.92 3.92 0 0 1-.71-.208c-.193-.081-.62-.283-.86-.737a1.123 1.123 0 0 1 1.794-1.31c.053.016.13.036.231.057.15.03.312.056.481.082l.04.006c.138.02.32.049.46.082 2.026.48 4.229.663 6.373.691l.472.008c1.094.022 2.478.048 3.622-.2.656-.141 1.074-.344 1.297-.558.16-.153.288-.368.218-.846-.166-1.14-.551-2.223-1.038-3.35-.184-.424-.4-.891-.623-1.375a51.15 51.15 0 0 1-.949-2.14l-.218-.538c-1.561-3.85-3.1-7.644-4.827-11.406a1.123 1.123 0 0 1 .552-1.489ZM52.57 86.284a1.122 1.122 0 1 0-2.222.322c.373 2.575 1.972 4.735 3.877 6.236 1.899 1.494 4.245 2.45 6.319 2.483a1.123 1.123 0 0 0 .037-2.245c-1.475-.024-3.36-.738-4.967-2.002-1.599-1.26-2.777-2.949-3.044-4.794Z" fill="#252D37"></path></g><defs><clipPath id="a-eye"><path fill="#fff" d="M0 0h128v128H0z"></path></clipPath></defs></svg>