<svg fill="none" xmlns="http://www.w3.org/2000/svg" viewBox="0 0 128 128"><g clip-path="url(#a-obgyn)"><circle cx="63.695" cy="63.695" r="63.695" fill="#fff"></circle><path fill-rule="evenodd" clip-rule="evenodd" d="M41.153 63.279c-3.08-1.088-9.421-6.56-10.146-19.75-.435-6.088-3.443-7.368-4.892-7.247-1.752-.363-5.146.58-4.711 7.247.543 8.335 4.348 20.474 16.307 21.561l.351.167-.35.166c-11.959 1.087-15.763 13.226-16.307 21.56-.435 6.668 2.96 7.61 4.71 7.248 1.45.121 4.458-1.16 4.893-7.247.725-13.19 7.066-18.662 10.146-19.75.298-.161.613-.346.92-.543l.058-.005.061.005c.307.197.622.382.92.543 3.08 1.088 9.42 6.56 10.146 19.75.434 6.088 3.442 7.368 4.892 7.247 1.751.363 5.145-.58 4.71-7.247-.543-8.335-4.348-20.474-16.306-21.561l-.352-.167.35-.166c11.959-1.087 15.764-13.226 16.307-21.56.435-6.669-2.959-7.61-4.71-7.248-1.45-.121-4.458 1.16-4.892 7.247-.725 13.19-7.067 18.662-10.147 19.75-.298.161-.612.346-.92.543l-.058.005-.061-.005a14.335 14.335 0 0 0-.919-.544Zm55.232-19.75C95.66 56.72 89.32 62.191 86.24 63.28c-.298.161-.613.346-.92.543a9.54 9.54 0 0 0-.06.005 9.265 9.265 0 0 0-.06-.005 14.365 14.365 0 0 0-.92-.544c-3.08-1.087-9.421-6.559-10.146-19.749-.435-6.088-3.442-7.368-4.892-7.247-1.751-.363-5.146.58-4.71 7.247.543 8.335 4.348 20.474 16.306 21.561l.352.167-.35.166C68.878 66.51 65.074 78.65 64.53 86.984c-.434 6.668 2.96 7.61 4.711 7.248 1.45.12 4.457-1.16 4.892-7.248.725-13.19 7.067-18.662 10.147-19.75.298-.161.612-.346.92-.543l.058-.005.062.005c.306.197.621.382.919.543 3.08 1.088 9.422 6.56 10.146 19.75.435 6.088 3.443 7.368 4.892 7.247 1.752.363 5.146-.58 4.711-7.247-.543-8.335-4.348-20.474-16.307-21.561l-.351-.167.35-.166c11.958-1.087 15.763-13.226 16.307-21.56.435-6.669-2.959-7.61-4.711-7.248-1.45-.121-4.457 1.16-4.892 7.247Z" fill="#FED337"></path><path d="m31.007 43.53 1.12-.063v-.018l-1.12.08Zm10.146 19.748.536-.986a1.126 1.126 0 0 0-.162-.072l-.374 1.059ZM26.115 36.282l-.228 1.099c.106.022.214.028.32.02l-.092-1.12Zm-4.711 7.247-1.12.073 1.12-.073ZM37.71 65.09l.48-1.014a1.121 1.121 0 0 0-.379-.104l-.101 1.118Zm.351.167.48 1.014a1.122 1.122 0 0 0 0-2.029l-.48 1.015Zm-.35.166.101 1.118a1.12 1.12 0 0 0 .38-.104l-.481-1.014Zm-16.307 21.56-1.12-.072 1.12.073Zm4.71 7.248.094-1.118a1.124 1.124 0 0 0-.32.019l.227 1.1Zm4.893-7.247 1.12.08v-.019l-1.12-.061Zm10.146-19.75.374 1.059c.056-.02.11-.044.162-.072l-.536-.987Zm.92-.543-.086-1.12a1.122 1.122 0 0 0-.523.176l.608.944Zm.058-.005.085-1.12a1.127 1.127 0 0 0-.17 0l.085 1.12Zm.061.005.609-.944a1.122 1.122 0 0 0-.523-.175l-.086 1.119Zm.92.543-.536.987c.052.028.106.052.162.072l.373-1.059Zm10.146 19.75-1.121.061.001.019 1.12-.08Zm4.892 7.247.227-1.099a1.124 1.124 0 0 0-.32-.02l.093 1.12Zm4.71-7.247-1.12.073 1.12-.073ZM46.556 65.423l-.48 1.014c.118.057.247.092.378.104l.102-1.118Zm-.352-.167-.48-1.014a1.122 1.122 0 0 0 0 2.029l.48-1.015Zm.35-.166-.101-1.118c-.131.012-.26.047-.379.104l.48 1.014ZM62.86 43.53l1.12.072-1.12-.073Zm-4.71-7.248-.094 1.118c.108.01.216.003.321-.02l-.227-1.098Zm-4.892 7.247-1.12-.08-.001.019 1.12.061ZM43.11 63.28l-.374-1.06c-.055.02-.11.045-.162.073l.536.986Zm-.92.543.086 1.12c.186-.015.366-.075.523-.176l-.608-.944Zm-.058.005-.085 1.119c.057.004.114.004.17 0l-.085-1.12Zm-.061-.005-.608.944c.157.1.337.161.523.175l.085-1.119Zm44.167-.544-.374-1.058c-.056.02-.11.044-.162.072l.536.986ZM96.385 43.53l-1.12-.08v.019l1.12.061ZM85.32 63.822l.082 1.12c.188-.014.369-.074.527-.176l-.608-.944Zm-.06.005-.09 1.119c.06.005.12.005.179 0l-.09-1.12Zm-.06-.005-.608.944c.158.102.339.162.526.176l.082-1.12Zm-.92-.544.536-.986a1.126 1.126 0 0 0-.162-.072l-.374 1.059ZM74.133 43.53l1.12-.062v-.018l-1.12.08Zm-4.892-7.247-.228 1.099c.106.022.214.028.321.02l-.093-1.12Zm-4.71 7.247-1.121.073 1.12-.073Zm16.305 21.56.48-1.014a1.121 1.121 0 0 0-.378-.104l-.102 1.118Zm.352.167.48 1.014a1.123 1.123 0 0 0 0-2.029l-.48 1.015Zm-.35.166.1 1.118a1.12 1.12 0 0 0 .38-.104l-.48-1.014ZM64.53 86.984l-1.12-.073 1.12.073Zm4.711 7.248.093-1.12a1.12 1.12 0 0 0-.32.02l.227 1.1Zm4.892-7.248 1.12.08.001-.018-1.12-.062Zm10.147-19.75.373 1.06c.056-.02.11-.044.162-.073l-.535-.986Zm.92-.543-.086-1.12a1.123 1.123 0 0 0-.523.176l.608.944Zm.058-.005.089-1.119a1.115 1.115 0 0 0-.174 0l.085 1.12Zm.062.005.608-.944a1.123 1.123 0 0 0-.527-.176l-.081 1.12Zm.919.543-.536.987c.052.028.106.052.162.072l.374-1.059Zm10.146 19.75-1.12.061v.019l1.12-.08Zm4.892 7.247.228-1.099a1.128 1.128 0 0 0-.321-.02l.093 1.12ZM89.682 65.423l-.48 1.014c.119.057.247.092.379.104l.101-1.118Zm-.351-.167-.48-1.014a1.123 1.123 0 0 0 0 2.029l.48-1.015Zm.35-.166-.102-1.118c-.13.012-.26.047-.378.104l.48 1.014Zm16.307-21.56 1.12.072-1.12-.073Zm-4.711-7.248-.093 1.118c.107.01.215.003.321-.02l-.228-1.098ZM29.886 43.59c.743 13.522 7.282 19.471 10.894 20.746l.747-2.117c-2.55-.9-8.693-5.894-9.4-18.752l-2.241.123Zm-3.678-6.19c.36-.03 1.143.111 1.91.939.764.824 1.564 2.395 1.769 5.27l2.24-.16c-.23-3.215-1.151-5.328-2.362-6.636-1.208-1.304-2.655-1.742-3.744-1.651l.187 2.237Zm-3.684 6.055c-.207-3.167.515-4.692 1.213-5.397a2.371 2.371 0 0 1 2.15-.678l.455-2.199a4.616 4.616 0 0 0-4.2 1.297c-1.329 1.343-2.087 3.622-1.858 7.123l2.24-.146Zm15.288 20.516c-5.549-.504-9.2-3.547-11.571-7.52-2.393-4.01-3.452-8.937-3.717-12.996l-2.24.146c.279 4.276 1.394 9.586 4.029 14 2.657 4.454 6.887 8.024 13.296 8.606l.203-2.236Zm.73.27-.35-.166-.962 2.029.352.166.96-2.029Zm-.35 2.195.35-.166-.96-2.029-.35.166.96 2.03Zm-15.667 20.62c.265-4.059 1.324-8.986 3.717-12.996 2.37-3.973 6.022-7.016 11.571-7.52l-.203-2.236c-6.409.582-10.639 4.152-13.296 8.605-2.635 4.415-3.75 9.725-4.03 14l2.241.147Zm3.363 6.075a2.372 2.372 0 0 1-2.15-.678c-.697-.705-1.42-2.23-1.213-5.397l-2.24-.146c-.229 3.5.53 5.78 1.858 7.123a4.616 4.616 0 0 0 4.2 1.297l-.455-2.199Zm4-6.228c-.205 2.874-1.005 4.444-1.77 5.269-.766.828-1.548.97-1.909.94l-.186 2.237c1.088.09 2.535-.347 3.743-1.651 1.211-1.308 2.132-3.421 2.362-6.635l-2.24-.16Zm10.893-20.728C37.169 67.45 30.63 73.4 29.887 86.922l2.242.123c.706-12.858 6.85-17.852 9.399-18.752l-.747-2.117Zm.684-.429c-.28.181-.57.351-.846.5l1.07 1.974c.321-.174.66-.373.993-.587l-1.217-1.887Zm.582-.18-.059.004.17 2.239.06-.005-.171-2.238Zm.232.005-.062-.005-.17 2.239.061.004.17-2.238Zm1.369.676c-.276-.15-.566-.32-.846-.5l-1.217 1.886c.332.215.672.413.992.587l1.07-1.973Zm10.731 20.674c-.742-13.522-7.282-19.471-10.893-20.746l-.747 2.117c2.549.9 8.692 5.894 9.399 18.752l2.242-.123Zm3.678 6.19c-.36.03-1.142-.111-1.91-.939-.763-.825-1.563-2.395-1.769-5.27l-2.239.16c.23 3.215 1.15 5.328 2.362 6.636 1.208 1.304 2.654 1.742 3.743 1.651l-.187-2.237Zm3.684-6.055c.207 3.167-.515 4.692-1.213 5.397a2.372 2.372 0 0 1-2.15.678l-.455 2.199a4.616 4.616 0 0 0 4.2-1.297c1.33-1.343 2.087-3.623 1.859-7.123l-2.24.146ZM46.453 66.54c5.55.504 9.201 3.547 11.572 7.52 2.393 4.01 3.452 8.937 3.716 12.996l2.24-.146c-.278-4.276-1.394-9.586-4.028-14-2.658-4.454-6.888-8.024-13.297-8.606l-.203 2.236Zm-.73-.27.351.166.961-2.029-.351-.166-.961 2.029Zm.35-2.195-.35.166.961 2.029.35-.166-.961-2.03Zm15.667-20.62c-.265 4.059-1.323 8.986-3.716 12.996-2.37 3.973-6.023 7.016-11.572 7.52l.203 2.236c6.41-.582 10.64-4.152 13.297-8.605 2.634-4.415 3.75-9.725 4.029-14l-2.24-.147Zm-3.363-6.075a2.372 2.372 0 0 1 2.15.678c.698.705 1.42 2.23 1.213 5.397l2.24.146c.229-3.5-.529-5.78-1.857-7.122a4.616 4.616 0 0 0-4.2-1.298l.454 2.199Zm-4 6.228c.206-2.874 1.006-4.445 1.77-5.269.766-.828 1.549-.97 1.91-.94l.186-2.237c-1.09-.09-2.535.347-3.744 1.651-1.21 1.308-2.132 3.421-2.361 6.635l2.24.16ZM43.485 64.337c3.611-1.275 10.15-7.224 10.893-20.746l-2.241-.123c-.707 12.858-6.85 17.852-9.4 18.752l.748 2.117Zm-.685.429c.281-.181.571-.352.847-.501l-1.072-1.973c-.32.174-.659.372-.991.587l1.216 1.887Zm-.581.18.058-.004-.17-2.239-.059.004.17 2.239Zm-.232-.005.061.005.17-2.239-.06-.004-.171 2.238Zm-1.37-.676c.276.15.566.32.847.5l1.216-1.886a15.48 15.48 0 0 0-.991-.587l-1.071 1.973Zm45.995.072c3.612-1.275 10.15-7.224 10.894-20.746l-2.242-.123c-.706 12.858-6.85 17.852-9.399 18.752l.747 2.117Zm-.684.429c.28-.181.57-.352.846-.501l-1.071-1.973c-.32.174-.66.372-.992.587l1.217 1.887Zm-.58.18.053-.004-.163-2.24-.068.006.178 2.238Zm-.23-.004.052.004.177-2.238a10.988 10.988 0 0 0-.067-.005l-.163 2.239Zm-1.374-.677c.275.15.566.32.847.5l1.216-1.886a15.495 15.495 0 0 0-.992-.587l-1.071 1.973ZM73.012 43.591c.743 13.522 7.282 19.471 10.894 20.746l.747-2.117c-2.549-.9-8.693-5.894-9.4-18.752l-2.24.123Zm-3.678-6.19c.36-.03 1.143.111 1.91.939.764.824 1.564 2.395 1.77 5.27l2.239-.16c-.23-3.215-1.15-5.328-2.362-6.636-1.208-1.304-2.654-1.742-3.743-1.651l.186 2.237Zm-3.684 6.055c-.206-3.167.516-4.692 1.213-5.397a2.372 2.372 0 0 1 2.15-.678l.455-2.199a4.616 4.616 0 0 0-4.2 1.297c-1.329 1.343-2.086 3.622-1.858 7.123l2.24-.146Zm15.288 20.516c-5.549-.504-9.2-3.547-11.571-7.52-2.393-4.01-3.452-8.937-3.717-12.996l-2.24.146c.279 4.276 1.394 9.586 4.029 14 2.657 4.454 6.887 8.024 13.296 8.606l.204-2.236Zm.731.27-.352-.166-.96 2.029.351.166.961-2.029Zm-.35 2.195.35-.166-.961-2.029-.35.166.96 2.03ZM65.65 87.057c.265-4.058 1.324-8.986 3.717-12.996 2.37-3.972 6.023-7.016 11.572-7.52l-.203-2.236c-6.41.583-10.64 4.152-13.297 8.605-2.635 4.416-3.75 9.725-4.029 14.001l2.24.146Zm3.364 6.075a2.372 2.372 0 0 1-2.15-.678c-.698-.705-1.42-2.23-1.213-5.397l-2.24-.146c-.23 3.5.529 5.78 1.857 7.123a4.616 4.616 0 0 0 4.2 1.297l-.454-2.199Zm4-6.228c-.206 2.874-1.006 4.445-1.77 5.27-.767.827-1.549.969-1.91.939l-.186 2.237c1.089.091 2.535-.347 3.743-1.651 1.211-1.308 2.132-3.421 2.362-6.635l-2.24-.16Zm10.892-20.728c-3.611 1.275-10.15 7.224-10.894 20.746l2.242.124c.707-12.859 6.85-17.853 9.4-18.753l-.748-2.117Zm.685-.429c-.281.181-.571.352-.847.501l1.071 1.973c.32-.174.66-.373.992-.587l-1.216-1.887Zm.582-.18-.06.004.171 2.239.06-.005-.171-2.238Zm.228.004-.054-.004-.178 2.238.07.005.162-2.239Zm1.373.677c-.275-.15-.565-.32-.846-.5l-1.216 1.886c.332.215.671.413.991.587l1.071-1.973Zm10.732 20.674c-.743-13.522-7.282-19.471-10.894-20.746l-.747 2.117c2.55.9 8.693 5.894 9.4 18.752l2.241-.123Zm3.678 6.19c-.361.03-1.143-.111-1.91-.939-.764-.825-1.564-2.395-1.769-5.27l-2.24.16c.23 3.215 1.151 5.328 2.362 6.636 1.208 1.304 2.655 1.742 3.744 1.651l-.187-2.237Zm3.684-6.055c.207 3.167-.515 4.692-1.213 5.397a2.372 2.372 0 0 1-2.15.678l-.455 2.199a4.615 4.615 0 0 0 4.2-1.297c1.329-1.343 2.087-3.623 1.858-7.123l-2.24.146ZM89.581 66.54c5.549.504 9.2 3.547 11.571 7.52 2.393 4.01 3.452 8.937 3.717 12.996l2.24-.146c-.279-4.276-1.394-9.586-4.029-14-2.657-4.454-6.887-8.024-13.296-8.606l-.203 2.236Zm-.73-.27.35.166.962-2.029-.352-.166-.96 2.029Zm.35-2.195-.35.166.96 2.029.35-.166-.96-2.03Zm15.667-20.62c-.265 4.059-1.324 8.986-3.717 12.996-2.37 3.973-6.022 7.016-11.572 7.52l.204 2.236c6.409-.582 10.639-4.152 13.296-8.605 2.635-4.415 3.75-9.725 4.029-14l-2.24-.147Zm-3.363-6.075a2.372 2.372 0 0 1 2.15.678c.697.705 1.419 2.23 1.213 5.397l2.24.146c.228-3.5-.529-5.78-1.858-7.122a4.615 4.615 0 0 0-4.2-1.298l.455 2.199Zm-4 6.228c.205-2.874 1.005-4.445 1.77-5.269.766-.828 1.548-.97 1.909-.94l.186-2.237c-1.089-.09-2.535.347-3.743 1.651-1.211 1.308-2.132 3.421-2.362 6.635l2.24.16Z" fill="#FED337"></path><path fill-rule="evenodd" clip-rule="evenodd" d="M58.29 37.384a2.284 2.284 0 0 1 1.68.326c.555.361 1.197 1.122 1.493 2.736a1.122 1.122 0 1 0 2.208-.405c-.382-2.084-1.3-3.448-2.48-4.214a4.528 4.528 0 0 0-3.361-.64 1.123 1.123 0 0 0 .46 2.197Zm-3.936 6.21a1.122 1.122 0 1 0-2.242-.122c-.486 8.959-3.585 14.124-6.274 16.722a1.122 1.122 0 1 0 1.56 1.615c3.15-3.044 6.444-8.77 6.956-18.216Zm43.15 43.31c.205 2.875 1.005 4.445 1.769 5.27.767.827 1.549.97 1.91.94a1.122 1.122 0 0 1 .186 2.237c-1.089.09-2.535-.347-3.743-1.652-1.211-1.307-2.133-3.42-2.362-6.635a1.123 1.123 0 1 1 2.24-.16Zm9.603.008a1.123 1.123 0 0 1-2.241.146c-.206-3.166-.897-6.878-2.339-10.27-1.443-3.393-3.607-6.399-6.722-8.273a1.123 1.123 0 0 1 1.157-1.924c3.642 2.19 6.067 5.64 7.631 9.318 1.563 3.678 2.295 7.649 2.514 11.002Zm-4.013-49.202a2.284 2.284 0 0 0-1.679-.326 1.123 1.123 0 0 1-.46-2.198 4.528 4.528 0 0 1 3.362.641c1.18.766 2.097 2.13 2.479 4.214a1.122 1.122 0 0 1-2.208.405c-.296-1.614-.938-2.375-1.494-2.736Zm-6.675 4.702a1.122 1.122 0 0 1 1.06 1.181c-.512 9.446-3.806 15.172-6.956 18.216a1.123 1.123 0 1 1-1.56-1.615c2.689-2.598 5.788-7.763 6.274-16.722a1.123 1.123 0 0 1 1.182-1.06ZM65.593 90.625a1.123 1.123 0 1 0-2.202.436c.383 1.934 1.37 3.135 2.556 3.772a4.844 4.844 0 0 0 3.144.487 1.123 1.123 0 0 0-.436-2.202 2.603 2.603 0 0 1-1.645-.262c-.546-.293-1.153-.898-1.417-2.23Zm-43.985-.883a1.123 1.123 0 0 1 1.32.883c.263 1.333.87 1.938 1.416 2.23a2.603 2.603 0 0 0 1.645.263 1.123 1.123 0 0 1 .436 2.202 4.84 4.84 0 0 1-3.144-.487c-1.186-.637-2.173-1.838-2.556-3.772a1.123 1.123 0 0 1 .883-1.319Zm8.28-46.13c-.205-2.874-1.006-4.444-1.77-5.269-.766-.828-1.548-.97-1.91-.94a1.123 1.123 0 0 1-.186-2.237c1.09-.09 2.536.347 3.744 1.651 1.21 1.308 2.132 3.421 2.361 6.635a1.123 1.123 0 1 1-2.239.16Zm-9.603-.007a1.123 1.123 0 0 1 2.24-.146c.207 3.166.898 6.878 2.34 10.27 1.442 3.392 3.606 6.399 6.721 8.273a1.123 1.123 0 0 1-1.157 1.923c-3.642-2.19-6.067-5.64-7.63-9.317-1.564-3.678-2.296-7.65-2.514-11.003Zm53.788 44.5a1.122 1.122 0 0 1-1.06-1.182c.514-9.346 3.786-15.05 6.945-18.119a1.123 1.123 0 0 1 1.564 1.611c-2.704 2.626-5.78 7.775-6.267 16.63a1.123 1.123 0 0 1-1.182 1.06Zm-44.185-1.182a1.123 1.123 0 0 0 2.241.123c.487-8.856 3.563-14.005 6.267-16.631a1.122 1.122 0 1 0-1.564-1.61c-3.159 3.067-6.43 8.772-6.944 18.118Z" fill="#252D37"></path><path d="M84.858 46.143a9.216 9.216 0 0 0-4.315 2.446 8.24 8.24 0 0 0-2.242 4.213l-.493 2.55-.493-2.55a8.24 8.24 0 0 0-2.242-4.213 9.217 9.217 0 0 0-4.314-2.446 9.21 9.21 0 0 0 4.315-2.445 8.233 8.233 0 0 0 2.241-4.215l.493-2.55.493 2.55a8.232 8.232 0 0 0 2.241 4.215 9.21 9.21 0 0 0 4.316 2.445ZM35.19 61.24a9.217 9.217 0 0 0-4.315 2.445 8.24 8.24 0 0 0-2.242 4.213l-.493 2.55-.493-2.55a8.241 8.241 0 0 0-2.242-4.213 9.217 9.217 0 0 0-4.314-2.446 9.209 9.209 0 0 0 4.315-2.445 8.231 8.231 0 0 0 2.241-4.214l.493-2.55.493 2.55a8.231 8.231 0 0 0 2.241 4.214 9.209 9.209 0 0 0 4.316 2.445Z" fill="#FDFAEE" stroke="#FF8A56" stroke-width="2.245" stroke-linecap="round" stroke-linejoin="round"></path></g><defs><clipPath id="a-obgyn"><path fill="#fff" d="M0 0h128v128H0z"></path></clipPath></defs></svg>