<svg fill="none" xmlns="http://www.w3.org/2000/svg" viewBox="0 0 128 128"><g clip-path="url(#a-pcp)"><circle cx="63.695" cy="63.695" r="63.695" fill="#fff"></circle><path d="M79.555 31.69c-14.28 0-17.234 11.241-17.284 11.437-.051-.198-3.008-11.438-17.284-11.438-7.608 0-17.284 5.72-17.284 20.017 0 7.035 3.085 12.285 6.914 16.382 5.185-.478 5.891 4.205 8.296 6.022 10.716 10.605 9.68 4.789 9.68 4.789s-4.533-4.889 29.843-4.317c6.247-4.718 14.403-11.438 14.403-22.876 0-14.298-9.673-20.017-17.284-20.017Z" fill="#FED337"></path><path d="M99.597 89.3a1.122 1.122 0 1 0 .442-2.2l-.442 2.2Zm-6.237-4.342.796-.793-.796.793ZM81.252 76.85l.176-1.108-.176 1.108Zm-25.427 1.216.026 1.122-.026-1.122Zm13.282 7.577a1.122 1.122 0 1 0-.734-2.122l.734 2.122Zm25.32 19.749a1.122 1.122 0 1 0 1.094-1.96l-1.093 1.96ZM58.65 97.958l-.318 1.077.318-1.077Zm-25.831-25.16-1.101-.22-.01.054-.006.055 1.117.11Zm5.65-1.216.906-.663-.906.663Zm14.54 13.311a1.123 1.123 0 0 0-.11-2.242l.11 2.242Zm47.03 2.207c-.591-.12-1.643-.418-2.773-.92-1.136-.502-2.277-1.177-3.11-2.015l-1.591 1.585c1.103 1.108 2.519 1.92 3.791 2.483 1.279.567 2.487.916 3.24 1.068l.443-2.201Zm-5.883-2.934c-2.2-2.21-4.587-7.133-12.728-8.423l-.352 2.217c7.196 1.14 8.845 5.135 11.489 7.79l1.59-1.585Zm-12.728-8.423c-6.495-1.03-8.652-.839-11.403-.3-2.562.503-5.643 1.301-14.227 1.502l.053 2.244c8.772-.204 11.998-1.03 14.606-1.542 2.42-.475 4.3-.69 10.62.313l.35-2.217Zm-25.63 1.202c-1.471.034-2.65.472-3.478 1.27-.825.794-1.18 1.83-1.228 2.832-.047.994.202 2 .64 2.851.434.844 1.102 1.625 1.974 2.063l1.008-2.007c-.339-.17-.706-.54-.986-1.083a3.488 3.488 0 0 1-.394-1.717c.027-.554.213-1.005.544-1.323.327-.316.917-.617 1.973-.642l-.053-2.244Zm-2.092 9.016c1.445.725 3.874 1.122 6.559 1.12 2.726-.001 5.88-.413 8.842-1.437l-.734-2.122c-2.688.93-5.589 1.313-8.11 1.314-2.562.002-4.572-.391-5.55-.882l-1.007 2.007Zm41.816 17.472c-1.27-.709-3.471-1.749-6.018-2.616-2.538-.863-5.495-1.58-8.252-1.58v2.245c2.409 0 5.102.635 7.529 1.461 2.418.822 4.495 1.808 5.647 2.45l1.094-1.96Zm-14.27-4.196c-6.453 0-15.592-.379-22.284-2.355l-.636 2.153c7.03 2.077 16.457 2.447 22.92 2.447v-2.245Zm-22.284-2.355c-6.528-1.928-11.778-4.363-15.189-8.55l-1.74 1.418c3.854 4.73 9.656 7.325 16.293 9.285l.636-2.153Zm-15.189-8.55c-1.844-2.264-4.423-5.257-6.512-8.212-1.042-1.474-1.934-2.9-2.537-4.18-.618-1.31-.864-2.326-.794-3.03l-2.234-.223c-.132 1.322.328 2.792.997 4.21.683 1.45 1.658 2.996 2.735 4.519 2.148 3.038 4.817 6.14 6.605 8.334l1.74-1.418Zm-9.86-15.315c.251-1.258.927-1.746 1.5-1.85.613-.113 1.46.144 2.145 1.078l1.81-1.327c-1.097-1.497-2.752-2.254-4.358-1.96-1.644.3-2.903 1.636-3.298 3.62l2.202.44Zm3.645-.772c1.834 2.504 4.371 5.669 7.044 8.192 1.336 1.261 2.735 2.39 4.124 3.194 1.374.796 2.84 1.334 4.278 1.262l-.112-2.242c-.822.04-1.843-.269-3.04-.963-1.184-.685-2.443-1.689-3.709-2.884-2.53-2.389-4.976-5.43-6.774-7.886l-1.811 1.327Z" fill="#252D37"></path><path fill-rule="evenodd" clip-rule="evenodd" d="M61.974 22.977c.62 0 1.122.503 1.122 1.123v7.224a1.123 1.123 0 1 1-2.245 0V24.1c0-.62.503-1.123 1.123-1.123Zm11.621 1.556c.52.336.67 1.031.333 1.552l-3.784 5.848a1.123 1.123 0 0 1-1.885-1.22l3.784-5.848a1.123 1.123 0 0 1 1.552-.332Zm-23.572 1.552a1.123 1.123 0 0 1 1.885-1.22l3.785 5.849a1.122 1.122 0 1 1-1.885 1.22l-3.785-5.85Z" fill="#FF8A56"></path></g><defs><clipPath id="a-pcp"><path fill="#fff" d="M0 0h128v128H0z"></path></clipPath></defs></svg>