<svg fill="none" xmlns="http://www.w3.org/2000/svg" viewBox="0 0 128 128"><g clip-path="url(#a-psy)"><circle cx="63.695" cy="63.695" r="63.695" fill="#fff"></circle><path fill-rule="evenodd" clip-rule="evenodd" d="M43.655 32.264a23.39 23.39 0 0 1 4.063-.439c-4.01 1.377-7.52 4.36-9.62 7.791-.135.221-.266.445-.392.67-1.809.601-3.536 1.43-5.044 2.563a11.59 11.59 0 0 0-.222.17 9.91 9.91 0 0 1 1.098-3.346c2.075-3.865 5.828-6.543 10.117-7.409ZM30.138 45.355c-.17-2.238.24-4.542 1.422-6.744 2.407-4.482 6.738-7.556 11.651-8.547 4.236-.855 8.456-.45 12.505.116 4.877.683 8.498 1.466 13.07 3.425a30.782 30.782 0 0 1 4.252 2.224c.91-.01 1.791.108 2.554.294 1.759.428 3.17 1.285 4.244 2.408a20.32 20.32 0 0 1 4.318.813c5.834 1.804 9.36 6 10.837 11.723.317 1.231.438 2.44.466 3.636 1.52 1.448 2.935 3.127 3.862 5.019 2.017 4.12.686 8.913-.858 12.466 2.74 4.368 2.075 9.705.121 13.99-1.335 2.93-3.222 6.035-5.995 8.117-4.222 3.17-9.964 4.268-14.921 4.552-.232.217-.472.433-.717.64-.662.556-1.43 1.102-2.247 1.414-.837.32-1.823.427-2.78-.06-.793-.403-1.502-1.054-2.095-1.72-1.759-.064-3.495-.27-5.192-.507a97.334 97.334 0 0 1-1.102-.16c-1.769.622-3.666.872-5.645.558-1.89-.3-3.56-1.174-5.018-2.306-3.252 2.032-7.24 2.467-10.678 2.611-2.967.125-6.03-.094-8.96-1-6.678-2.064-10.715-6.86-12.407-13.421-.472-1.829-.564-3.616-.538-5.396v-.357a22.02 22.02 0 0 1 .005-.85c.016-.45.066-1.004.255-1.52.319-.873 1.109-1.172 1.675-1.26.567-.09 1.19-.027 1.714.06.543.09 1.082.226 1.509.338l.277.073h.001c.304.08.472.125.553.137.763.11 1.52.176 2.28.205a34.015 34.015 0 0 1-.29-1.05 13.142 13.142 0 0 1-1.473-2.315c-1.763-3.602-.617-7.77.708-10.844-2.359-3.827-1.764-8.473-.073-12.184.703-1.542 1.584-3.147 2.71-4.578ZM28.464 58.68c-.631-2.49-.15-5.276 1.008-7.815.377-.83.797-1.647 1.266-2.425.198.631.439 1.25.717 1.852.258.558.548 1.103.869 1.633-1.67 1.99-2.972 4.31-3.86 6.755Zm1.855 15.565a35.406 35.406 0 0 1-.98-7.644 18.48 18.48 0 0 1 .086-2.138c1.54 1.48 3.458 2.675 5.41 3.61.137.584.294 1.16.472 1.728.595 1.892 1.575 3.598 3.124 4.809a9.663 9.663 0 0 0-.126.797c-1.62.4-3.37.558-5.214.725l-.81.074-.04.004a19.32 19.32 0 0 1-1.922-1.965Zm1.486 4.545c1.763 4.188 4.526 7.807 8.47 9.897.704.373 1.437.702 2.193.99a8.7 8.7 0 0 1-.709-1.726 10.106 10.106 0 0 1-.363-3.507c-.12-.294-.232-.594-.336-.897-3.257-.827-6.341-2.46-8.718-4.327-.177-.14-.357-.283-.537-.43Zm20.114 12.107c-.218.14-.461.253-.722.341a28.89 28.89 0 0 1-.493-.008 36.24 36.24 0 0 1-.643-.86 28.21 28.21 0 0 1-2.322-3.736c.624.34 1.262.653 1.91.934a19.15 19.15 0 0 0 2.27 3.33Zm13.113 4.385c-1.898-.551-3.769-1.667-5.424-2.893a15.728 15.728 0 0 0 4.292-1.98 19.4 19.4 0 0 0 1.152.858c.337.234.696.462 1.071.679.141.735.343 1.463.612 2.179l-.169.128c-.5.377-1.012.722-1.534 1.03Zm9.097 1.394c-.383-.006-.77-.016-1.157-.032 2.939-1.35 5.464-3.663 7.056-6.267a18.3 18.3 0 0 0 1.201-2.337 33.208 33.208 0 0 0 3.49-1.573 8.408 8.408 0 0 1-1.008 3.71 12.34 12.34 0 0 1-4.05 4.433 1.122 1.122 0 0 0-1.063.19 12.52 12.52 0 0 0-.967.91c-.82.354-1.682.624-2.57.804-.31.062-.62.116-.932.162Zm7.145-.45c3.631-.548 7.217-1.661 9.965-3.725 2.333-1.751 4.027-4.46 5.3-7.254 1.574-3.451 2.087-7.322.688-10.587-2.442 4.306-6.07 7.904-10.3 10.543.173 2-.18 4.064-1.238 6.037a14.554 14.554 0 0 1-4.415 4.986Zm5.2-13.4c3.975-2.643 7.305-6.204 9.4-10.402-1.548-1.928-3.843-3.508-6.307-4.737-.108 4.184-1.7 8.609-4.487 11.972.258.434.493.88.704 1.336.274.593.506 1.205.69 1.83Zm3.017-17.662c2.694 1.224 5.381 2.87 7.378 4.988 1.215-3.173 1.814-6.622.433-9.442-.497-1.016-1.177-1.981-1.966-2.891a3.182 3.182 0 0 1-.11.37c-.303.83-1.053 1.107-1.567 1.188-.516.081-1.074.024-1.532-.053-.477-.08-.949-.198-1.319-.295a66.4 66.4 0 0 1-.482-.127 5.916 5.916 0 0 0-.207-.049l-.013-.002a18.498 18.498 0 0 0-1.748-.168c.614 2.153.98 4.36 1.133 6.481Zm3.532-12.557a11.424 11.424 0 0 0-.206-.978c-1.306-5.062-4.324-8.593-9.326-10.14-.65-.2-1.315-.359-1.989-.48.203.442.372.9.508 1.368.376 1.286.51 2.662.411 4.032.156.379.299.763.43 1.154 3.768.939 7.347 2.825 10.103 4.99l.069.054ZM73.31 38.715c-.288-.208-.58-.41-.876-.608-.987.101-1.89.42-2.526 1.003-.167.154-.328.32-.482.5 1.266-.455 2.586-.727 3.883-.895Zm-3.53 3.16c1.81-.727 3.884-1.007 5.984-1.127 1.79 1.698 3.265 3.654 4.276 5.832a15.896 15.896 0 0 0-1.045-.606 18.97 18.97 0 0 0-2.04-.93 28.357 28.357 0 0 0-4.543-2.355 16.741 16.741 0 0 0-2.633-.814Zm14.39 8.417a25.675 25.675 0 0 1 7.397 4.025c.556.437 1.111.896 1.65 1.375l-.001.053c-.003.185-.001.328 0 .463.003.17.004.327-.003.537-.006.17-.019.31-.036.425a3.643 3.643 0 0 1-.681-.061 12.833 12.833 0 0 1-1.28-.296 8.113 8.113 0 0 0-.789-.185 21.225 21.225 0 0 0-2.82-.214c-.84-2.209-1.97-4.303-3.437-6.122Zm1.438 8.43.414-.026c.558 1.79.928 3.654 1.129 5.505a38.143 38.143 0 0 0-2.091-.709c-.4-.122-.801-.237-1.203-.342.522-1.117 1.169-2.53 1.62-3.983.045-.146.089-.294.13-.444Zm-16.841-12.01c.043-.312.072-.626.086-.94l.063.002c.173.226.343.454.51.683.523.718 1 1.442 1.428 2.176-.226.122-.446.25-.661.384a17.224 17.224 0 0 0-1.426-2.305Zm12.972 15.667a8.427 8.427 0 0 0-.659-1.06 11.686 11.686 0 0 0 1.476-2.313c.209-.023.42-.044.634-.065-.418 1.226-.97 2.406-1.45 3.437v.001Zm1.073 3.016.082-.173c.503.124 1.005.264 1.507.418.95.29 1.934.636 2.918 1.035l.006.27c.072 3.753-1.246 7.739-3.592 10.798a16.04 16.04 0 0 0-.24-.286c-.002-.145-.005-.29-.01-.436l.013-.178c.23-3.62.242-7.704-.683-11.448ZM78.07 71.97a10.247 10.247 0 0 0 1.59-1.464l.062.133a16.183 16.183 0 0 1 1.352 4.531 15.132 15.132 0 0 0-2.4-1.507 13.662 13.662 0 0 0-.942-.428l.004-.011c.135-.419.246-.837.334-1.254ZM65.732 88.99l.133.099v-.052a11.531 11.531 0 0 1-.125-.054l-.008.007Zm4.113 2.18a13.621 13.621 0 0 1-1.667-.676c-.026-.249-.045-.5-.056-.75a15.23 15.23 0 0 0 2.647.31c-.296.377-.604.75-.924 1.115Zm.727 2.521c.362.078.726.14 1.091.186.527.066 1.061.096 1.594.083a12.4 12.4 0 0 1-3.409 1.402l-.015-.023c-.123-.196-.24-.394-.35-.594.375-.34.738-.693 1.09-1.054Zm1.765-2c.467-.583.904-1.174 1.31-1.763a31.145 31.145 0 0 0 4.363-.843 8.822 8.822 0 0 1-.918 1.08c-1.252 1.245-2.921 1.675-4.755 1.525Zm9.968-6.54c.737-.34 1.462-.709 2.171-1.106a10.95 10.95 0 0 0-.73-2.11 12.1 12.1 0 0 0-.284-.573c-.113.104-.228.206-.344.306a28.84 28.84 0 0 1-.813 3.484Zm-2.788 1.124a29.747 29.747 0 0 1-4.326 1.148c.38-.697.764-1.49 1.061-2.326.96-.233 1.903-.53 2.813-.906.43-.178.847-.376 1.254-.593a22.964 22.964 0 0 1-.802 2.677Zm-2.732-3.65c.074-1.378-.275-2.813-1.5-3.97a5.399 5.399 0 0 0-.741-.591 9.518 9.518 0 0 0 2.296-2.768c.278.113.554.237.825.373a13.357 13.357 0 0 1 3.476 2.547c-.07.791-.156 1.585-.266 2.374a12.383 12.383 0 0 1-2.67 1.526c-.462.192-.936.36-1.42.509Zm-2.325.553c-1.544.274-3.149.391-4.757.415.443-.937.812-1.918 1.105-2.93a4.46 4.46 0 0 1 .556-.533c.426-.338.798-.473 1.116-.474.298 0 .719.116 1.262.63.76.718.947 1.682.718 2.892Zm-5.967 2.662c1.676.02 3.409-.043 5.124-.263a20.581 20.581 0 0 1-.854 1.571c-.126.212-.257.426-.393.64-1.42.086-2.839 0-4.157-.328.065-.54.159-1.08.28-1.62Zm-2.764-.1c-.127.157-.258.31-.391.46l-.044-.03a7.678 7.678 0 0 1-.663-.518c.373.038.74.067 1.098.088Zm1.277-2.807c-.674-.188-1.355-.37-2.04-.553.083-.335.145-.675.188-1.017a18.97 18.97 0 0 0 2.803-.535 12.045 12.045 0 0 0-.951 2.105Zm12.65-23.443a9.97 9.97 0 0 1-.175.233 6.93 6.93 0 0 0-.192-.133c.121-.035.243-.068.367-.1Zm1.32-2.55c-1.393.213-2.804.552-4.14 1.181-.27-.46-.559-.9-.863-1.321 2.097-1.5 3.88-3.374 5.028-5.49l.088-.164c.115.108.228.22.342.332.059.51.093 1.029.103 1.556.024 1.393-.15 2.697-.557 3.906Zm2.416-.278c.15-.61.254-1.232.316-1.867.124.548.133 1.165.049 1.835l-.365.032Zm-7.99-2.243c-.3-1.637-.79-3.182-1.45-4.665.234-.073.475-.14.72-.2 1.35-.333 2.77-.435 4.209-.35.157.129.313.258.467.389a9.4 9.4 0 0 1-.32.647c-.831 1.531-2.093 2.958-3.626 4.179Zm-3.516-3.783c.422.942.764 1.907 1.024 2.906-.425-.354-.864-.69-1.316-1.008a21.19 21.19 0 0 0-.477-1.43c.248-.165.504-.322.77-.468Zm.455 5.405c.079.075.157.152.234.229l-.191.1-.043-.33Zm-2.692-2.113c.12.477.225.96.313 1.448a3.393 3.393 0 0 0-1.01-.83 4.73 4.73 0 0 0-.894-.372c.194-.29.401-.57.62-.84.33.191.654.39.97.594Zm-1.28-3.541-.164.15a31.82 31.82 0 0 0-.586-.282 19.46 19.46 0 0 0 .325-.681c.15.266.29.537.425.813Zm4.555-2.66a14.35 14.35 0 0 1 1.212-.354c.585-.143 1.176-.25 1.773-.323a20.341 20.341 0 0 0-4.044-1.025 26.5 26.5 0 0 1 1.059 1.702Zm-11 4.712a25.937 25.937 0 0 1 .485-1.426c-.013.344-.127.743-.358 1.193-.04.078-.083.155-.128.233ZM60.4 49.976a37.066 37.066 0 0 0-.335.925c-.125-.192-.255-.38-.393-.564.047-.179.091-.358.133-.537.199.058.397.116.595.176Zm1.353-3.062a10.68 10.68 0 0 0-.281-.159c.143-.047.289-.092.436-.135l-.155.294Zm1.817 1.38c.305-.614.637-1.211.998-1.782-.075.814-.1 1.632-.087 2.446a49.713 49.713 0 0 0-.518-.186 4.333 4.333 0 0 0-.393-.477Zm.29-9.315a16.462 16.462 0 0 0-2.082-1.826c-2.637-1.971-5.791-3.743-8.872-3.88-2.71-.122-5.441.787-7.804 2.322.83-.072 1.668-.045 2.492.058 2.771.345 5.504 1.559 7.564 2.987.473.328.949.678 1.41 1.054l.091.02c1.874-.884 3.949-1.324 6.14-.976a8.2 8.2 0 0 1 1.06.241Zm-16.995-1.145c-2.004-.166-3.862.254-5.315 1.504a36.322 36.322 0 0 1 4.05-.456 15.3 15.3 0 0 1 .587-.521c.213-.18.44-.359.678-.527Zm-10.542 5.42c-.876 2.116-1.437 4.377-1.784 6.423a18.67 18.67 0 0 0-.606.544 14.208 14.208 0 0 1-.44-.871 12.477 12.477 0 0 1-1.016-3.29c.473-.526.983-1.003 1.534-1.416.71-.534 1.487-.994 2.312-1.39Zm3.039-1.127a27.1 27.1 0 0 1 3.844-.768 1.122 1.122 0 0 0 1.746 1.291c.328-.264.727-.672 1.11-1.064l.14-.144c.116-.119.234-.239.353-.358a40.308 40.308 0 0 1 5.139.133c.227.321.436.64.619.93.084.132.164.267.24.402a23.27 23.27 0 0 0-2.241 2.388c-3.75.02-7.68.446-11.183 1.895a16.24 16.24 0 0 0-1.774.864c.3-1.333.68-2.634 1.166-3.876.254-.588.534-1.156.84-1.693Zm14.147 2.879a96.735 96.735 0 0 0-.248-.011l.196-.2.052.21Zm2.326.161a11.796 11.796 0 0 0-.533-1.998l.056-.042c.306-.23.615-.446.93-.646.639.679 1.131 1.404 1.427 2.212a8.793 8.793 0 0 0-.551.656c-.446-.075-.89-.135-1.329-.182Zm4.028-2.175c-.116.067-.23.136-.344.208a7.973 7.973 0 0 0-.217-.411c.189.066.376.133.561.203Zm4.46-1.421a13.44 13.44 0 0 0-1.484.261 24.247 24.247 0 0 0-2.182-.94 7.395 7.395 0 0 1 1.79.063 6.452 6.452 0 0 1 1.876.616ZM43.93 47.748a20.555 20.555 0 0 0-3.942 1.158c-1.137.47-2.2 1.09-3.182 1.83l-.07.517a28.849 28.849 0 0 1 7.194-3.505Zm8.858 3.684c.201-.373.416-.737.645-1.09.103-.448.185-.895.243-1.342-1.061-.248-2.198-.316-3.343-.252-.102.162-.201.324-.297.484-.452.76-.92 1.642-1.218 2.52.953-.22 1.96-.332 3.01-.336.322 0 .642.005.96.017Zm-6.477 1.216c-.482.242-.944.519-1.383.832-1.32.94-2.402 2.181-3.216 3.687a13.264 13.264 0 0 1-1.111-.495 15.538 15.538 0 0 1-3.794-2.71 26.388 26.388 0 0 1 10.716-4.837c-.447.855-.881 1.855-1.103 2.88-.045.21-.082.425-.109.643Zm.261 2.43a4.23 4.23 0 0 0 1.048 1.539c.35.331.72.594 1.106.78-.259.25-.508.517-.747.798-1.38.025-2.74-.084-4.06-.367a8.394 8.394 0 0 1 2.653-2.75Zm6.46 9.81c.186-.117.37-.235.555-.355a5.947 5.947 0 0 1 1.323 1.707c-.458.305-.942.582-1.449.827a19.07 19.07 0 0 1-.429-2.18Zm-1.214 7.933-.126.045c-.871.31-1.782.595-2.707.825.038-1.027.126-2.05.26-3.054a20.38 20.38 0 0 0 2.83-.635c.13.32.272.636.423.948a9.667 9.667 0 0 0-.68 1.87Zm3.984-1.705-.03.015a10.137 10.137 0 0 0-.281-.821l.054-.075c.076-.104.154-.207.234-.31.024.4.032.797.023 1.191Zm-3.754 5.41a26.84 26.84 0 0 1-1.355-.793c.304-.148.612-.286.922-.414.056.465.21.866.433 1.207Zm7.896-4.143a7.649 7.649 0 0 0-1.2-.288c.407-.232.811-.47 1.21-.715.04.236.075.472.107.707-.04.098-.08.197-.117.296Zm-1.17-5.468c.268.683.493 1.395.684 2.126-.471.303-.95.596-1.435.878a16.48 16.48 0 0 0-.25-2.138c.332-.305.667-.594 1.001-.866Zm-1.48-2.79c-.196.232-.402.456-.619.673a8.184 8.184 0 0 0-1.207-1.572 43.914 43.914 0 0 0 .655-.492c.434.433.823.898 1.171 1.39Zm14.472 10.239c.636.003 1.266.04 1.887.118a10.319 10.319 0 0 1-2.078 2.143c.087-.744.151-1.5.19-2.261Zm-2.255.122a34.744 34.744 0 0 1-.382 3.44c-.36.04-.732.062-1.117.063a17.47 17.47 0 0 1-3.139-.266 8.86 8.86 0 0 0-.097-.316c.353-.765.736-1.523 1.135-2.269a26.806 26.806 0 0 1 3.6-.652Zm-4.194-5.134a37.36 37.36 0 0 0-.87.637l-.13.097a8.872 8.872 0 0 1-.271-.291c.291-.35.602-.683.932-1.001.107.19.22.377.339.558Zm3.365-3.105c-.372.54-.732 1.08-1.079 1.62-.138.08-.276.164-.413.247a7.35 7.35 0 0 1-.436-.763c.605-.412 1.25-.781 1.928-1.104Zm10.984.352a5.936 5.936 0 0 0-.896-.7c.02-.45.02-.9.002-1.348a23.75 23.75 0 0 1 1.517.164 11.755 11.755 0 0 1 .138.45c-.243.487-.495.968-.761 1.434Zm-3.752-5.23c.104.291.194.588.271.889a23.67 23.67 0 0 0-.303.013 12.258 12.258 0 0 0-.28-.367c.01-.098.02-.197.028-.295l.284-.24Zm-5.957-.273L70.32 61a27.83 27.83 0 0 1-.189 2.22c-.17-.423-.357-.84-.558-1.25.14-.286.268-.577.384-.873Zm-4.18 1.536c.196-.089.393-.175.591-.26.044.12.09.24.138.36a14.844 14.844 0 0 1-.671.877 16.76 16.76 0 0 1-.058-.977Zm-2.184 1.084c.053.648.139 1.293.258 1.933l.008.043a25.62 25.62 0 0 1-1.544 1.321 15.431 15.431 0 0 1-.723-2.117 33.07 33.07 0 0 1 2.001-1.18Zm-1.648-5.698a8.72 8.72 0 0 0 .007-.28c.234-.233.466-.468.695-.705.46.346.904.718 1.331 1.118l-.047.212c-.321-.02-.639-.053-.95-.099a6.096 6.096 0 0 1-1.036-.246Zm-.29 2.26c.321.087.653.156.996.207.314.047.63.082.948.106-.017.203-.031.407-.042.611a35.9 35.9 0 0 0-2.455 1.355 13.09 13.09 0 0 1-.05-.346c.25-.619.454-1.264.603-1.933Zm-3.004.448c.022.38.054.762.096 1.143-.044.093-.09.185-.136.277-.223-.276-.46-.544-.71-.805.25-.201.5-.406.75-.615Zm-3.915-4.115c-.115.221-.232.442-.35.662l-.012.008a27.341 27.341 0 0 1-1.238.288 26.745 26.745 0 0 1 .07-.441 11.67 11.67 0 0 1 1.53-.517Zm-.099-2.773c.325.043.647.094.965.153l.04.139a16.3 16.3 0 0 0-1.277.262c.099-.187.19-.373.272-.554Zm-2.84-.176a17.22 17.22 0 0 0-.335 1.031c-.143.159-.29.3-.44.42-.351.278-.641.376-.872.376-.21 0-.538-.08-.987-.504a1.981 1.981 0 0 1-.543-.854c.96-.301 2.023-.462 3.177-.47Zm-5.288 6.755a18.766 18.766 0 0 1-3.55-.506l-.057.175a11.288 11.288 0 0 0-.435 5.228c.293-.473.608-.933.95-1.365.685-.866 1.502-1.651 2.484-2.22.189-.454.392-.892.607-1.312Zm-7.425 6.956c-1.093-.82-1.945-1.994-2.658-3.378.09.846.21 1.682.367 2.502.765.33 1.536.621 2.291.876Zm-1.617 1.81c.386 1.21.93 2.238 1.679 3.042.305-.797.647-1.551.948-2.198a26.9 26.9 0 0 1-.872-.252 33.168 33.168 0 0 1-1.755-.593Zm3.74 4.457a5.937 5.937 0 0 1-.163-.07c.33-.958.753-1.883 1.14-2.712.123.2.25.396.383.59-.56.694-1.01 1.427-1.36 2.192Zm-6.887-8.367c-.405-2.97-.414-6.02-.274-8.88-1.591 1.63-2.94 3.473-3.958 5.489 1.083 1.321 2.58 2.453 4.232 3.391Zm25.298 22.932a9.189 9.189 0 0 0 1.686-.794c.26.5.578.962.934 1.39a13.598 13.598 0 0 1-3.67 1.545l-.027.007a28.33 28.33 0 0 0 1.077-2.148Zm-2.786.591a20.98 20.98 0 0 1-.267.49 8.275 8.275 0 0 1-.271-.454c.18-.008.359-.02.538-.036Zm2.074-4.966a37.765 37.765 0 0 1-.933 2.52 9.15 9.15 0 0 1-1.185.195c.037-.158.072-.314.103-.466.25-1.205.34-2.432.334-3.652l.2.071c.176.243.388.473.636.688.271.236.553.45.845.644Zm-20.497-6.143c.054.224.123.446.208.664.378.962 1.096 1.878 1.808 2.643l.006.034a21.995 21.995 0 0 1-5.644-2.797c1.19-.117 2.412-.272 3.622-.544Zm4.264-1.339c.128.02.256.038.385.055.005.53.022 1.052.05 1.565.021.409.053.813.094 1.212-.194.29-.374.587-.54.89a19.16 19.16 0 0 1-.111-.11c-.047-.42-.075-.846-.082-1.28-.015-.815.05-1.592.204-2.332Zm2.635.37a32.456 32.456 0 0 1-.004-.22l.257-.011a13.9 13.9 0 0 0-.253.232Zm.229 3.062c.402-.515.86-1.01 1.364-1.477.123 1.147.312 2.285.571 3.401a11.78 11.78 0 0 1-1.532.158 21.093 21.093 0 0 1-.403-2.082Zm4.097 1.307a26.668 26.668 0 0 1-.522-3.224 18.319 18.319 0 0 0 2.65 1.993 9.247 9.247 0 0 1-2.128 1.231Zm-1.558 2.79c-.157.03-.314.056-.472.08.207.13.416.255.627.377a24.804 24.804 0 0 1-.155-.457Zm3.19 1.925a20.512 20.512 0 0 1-1.027-2.536 11.371 11.371 0 0 0 3.638-2.24c.092.045.183.09.276.133a16.81 16.81 0 0 0-.188.396 9.176 9.176 0 0 0-.786 4.793 12.576 12.576 0 0 1-1.913-.546Zm1.686 2.789c.232.043.465.081.7.114a7.933 7.933 0 0 1-.25.465 16.93 16.93 0 0 1-.45-.58Zm-8.58-4.125c-.19-.142-.378-.285-.564-.43a14.597 14.597 0 0 1-.114-.013l-.007.053a15.33 15.33 0 0 0 1.698 2.86 24.454 24.454 0 0 1-1.013-2.47Zm1.644 8.522c-2.39-.448-4.699-1.209-6.791-2.318-4.855-2.573-8.033-7.073-9.914-12.082a24.43 24.43 0 0 1-3.356-.245 9.41 9.41 0 0 1-.887-.21l-.193-.05c-.417-.11-.873-.223-1.308-.296-.43-.071-.755-.088-.963-.062-.036.166-.06.38-.069.648-.009.243-.006.432-.004.635.002.157.004.32 0 .524-.024 1.687.067 3.25.468 4.803 1.521 5.9 5.05 10.03 10.896 11.838 2.61.806 5.4 1.019 8.202.9 3.188-.133 6.407-.523 9.015-1.94a23.773 23.773 0 0 1-1.053-1.14 27.27 27.27 0 0 1-.434-.267 9.228 9.228 0 0 1-2.203-.259c-.5-.122-.97-.283-1.406-.48Zm17.107-57.633a29.531 29.531 0 0 0-3.451-2.246c2.792.558 5.301 1.304 8.23 2.56a29.26 29.26 0 0 1 1.85.869 5.616 5.616 0 0 0-1.362.918 9.055 9.055 0 0 0-1.46 1.757c-1.033-1.522-2.377-2.789-3.807-3.858ZM49.198 63.049l-.063.003a4.771 4.771 0 0 0-.877.125 20.642 20.642 0 0 0-1.013 2.142c.364-.14.726-.291 1.084-.45.252-.625.543-1.233.87-1.82Zm-1.716 4.62c-.002.002-.003.003-.005.003-.232.105-.46.219-.686.339l.003-.15c.234-.076.467-.156.699-.239l-.01.048Zm2.746-6.842c.122.01.243.021.363.036l.008-.239a2.864 2.864 0 0 0-.37.203Zm5.673-1.642a20.049 20.049 0 0 0 1.885-.668c-.536.459-1.077.904-1.617 1.336-.151-.105-.307-.21-.467-.31l.2-.358Zm15.65 9.49c.053-.119.105-.236.154-.352l-.192.08.038.271Zm2.111 2.592c-.313.016-.62.014-.922-.004.554-.924.972-1.901 1.281-2.659.155-.378.298-.765.43-1.16.51-.112.961-.159 1.364-.15.13.544.215 1.1.248 1.663-.16.649-.356 1.29-.583 1.914a5.528 5.528 0 0 1-1.818.396ZM38.145 62.4a18.886 18.886 0 0 1-1.634-5.71 17.42 17.42 0 0 0 3.083 1.987c.405.203.814.386 1.227.55l-.055.167a13.519 13.519 0 0 0-.557 6.003c-.746-.637-1.42-1.616-2.064-2.997Zm20.202 11.904c.283.042.555.106.816.19-.175.173-.348.348-.52.525-.322-.246-.634-.51-.937-.787.216.017.43.041.641.072Zm5.923-1.336c.064.044.13.088.196.13l-.074.133c-.249.076-.498.157-.745.245.207-.172.415-.341.623-.508ZM53.831 74.59c.106-.026.212-.05.319-.075.034.273.065.539.095.797l.03.26a1.368 1.368 0 0 1-.063-.032c-.262-.145-.36-.294-.375-.562a5.109 5.109 0 0 1-.006-.388Z" fill="#FED337"></path><path fill-rule="evenodd" clip-rule="evenodd" d="M86.861 26.23a1.123 1.123 0 0 1 1.274.947c.127.87.44 2.216.787 3.622.108.437.219.88.327 1.31.23.921.448 1.787.59 2.425a1.123 1.123 0 0 1-2.191.489 99.456 99.456 0 0 0-.567-2.327c-.11-.437-.224-.895-.338-1.359-.343-1.387-.684-2.84-.83-3.834a1.123 1.123 0 0 1 .948-1.274Zm11.721 2.844c.47.404.523 1.113.12 1.583l-5.53 6.427a1.122 1.122 0 0 1-1.702-1.464L97 29.193a1.122 1.122 0 0 1 1.582-.12Zm-2.926 9.741a1.122 1.122 0 1 0 .495 2.19c.432-.098 1.083-.333 1.764-.6a99.38 99.38 0 0 0 2.335-.955c.383-.16.759-.32 1.117-.472 1.195-.506 2.2-.931 2.638-1.08a1.123 1.123 0 0 0-.718-2.126c-.526.177-1.662.658-2.881 1.175l-1.027.434c-.804.338-1.602.67-2.28.933-.702.274-1.2.447-1.443.501Z" fill="#FF8A56"></path></g><defs><clipPath id="a-psy"><path fill="#fff" d="M0 0h128v128H0z"></path></clipPath></defs></svg>