<svg xmlns="http://www.w3.org/2000/svg" fill="none" viewBox="0 0 280 280"><path fill="#5FC69B" d="m118.593 99.193 9.346-15.98 18.694 11.156 20.201 15.679-10.553 54.573h-19.296l-18.392-65.428Z"/><path fill="#252D37" d="M101.132 31.732c18.348-26.57 42.686 3.951 41.643 17.19-.054.69-1.172-1.507-7.39 15.673-7.771 21.475-57.187.349-34.253-32.863Z"/><path fill="#FFBB95" d="M185.829 265.996c-18.572.241-16.985-9.749-13.869-14.774h51.256c-4.723 4.824-18.814 14.532-37.387 14.774Z"/><path fill="#fff" d="m164.12 100.769-15.678 43.116h74.774c-11.096-23.638-44.221-38.694-59.096-43.116Z"/><path fill="#FED337" d="M78.493 143.817H260v111.558H78.493z"/><path fill="#fff" d="M86.935 151.911h164.561v95.779H86.935z"/><path fill="#fff" d="M33.857 150.216c34.733-60.544 72.676-66.098 91.369-62.179l9.648 55.847-26.243.904c-7.94 31.659-32.503 92.443-67.237 82.312-34.733-10.13-19.497-55.477-7.537-76.884Z"/><path stroke="#252D37" stroke-width="1.403" d="M172.534 103.42c1.216 7.083 3.425 21.947 2.537 24.738-.888 2.791-6.501 10.202-9.832 14.748m-48.842-55.82c-2.801 8.563-8.024 27.307-6.501 33.777 1.522 6.47 4.968 10.942 6.501 12.369"/><path stroke="#252D37" stroke-linecap="round" stroke-width="1.403" d="M90.554 134.168c-13.367 8.443-35.277 20.202-48.845 53.066"/><path fill="#FFBB95" d="M92.965 133.96c5.995.261 13.684 8.297 16.616 11.666 5.43 0 17.658-1.231 24.435-1.231 8.471 0 .977-10.435-13.032-15-11.208-3.652-23.35 1.522-28.019 4.565Zm90.452-40.193c-1.595-3.419-4.052-5.114-3.854-10.426.163-4.37 1.539-8.655 1.596-13.028.471-35.809-34.599-42.279-55.266-24.422-23.224 20.065-.029 51.104 20.439 62.65 12.931 7.294 19.111-4.543 26.104-11.238.329-.315.811-.388 1.242-.24 4.303 1.491 11.737.985 9.739-3.296Z"/><mask id="a" width="71" height="75" x="115" y="35" maskUnits="userSpaceOnUse" style="mask-type:alpha"><path fill="#E2A993" d="M185.41 96.018c-.983-2.909-2.377-7.562-3.347-11.721-1.044-4.475-.697-9.108-.62-13.702.628-37.576-36.291-43.292-56.819-25.371-23.067 20.136 3.901 55.756 20.804 61.809 19.081 6.834 20.394-3.102 27.078-9.724.326-.324.816-.402 1.243-.233 4.423 1.742 13.19 3.464 11.661-1.058Z"/></mask><g mask="url(#a)"><path fill="#252D37" d="M149.581 72.392c11.623 3.875 28.797-6.776 27.328-24.3-.052-.618.425-1.171 1.047-1.171.962 0 1.399-1.203.66-1.82l-25.527-21.334a1.154 1.154 0 0 0-1.419-.048l-34.915 25.426a1.152 1.152 0 0 0-.469.783c-1.525 11.389-10.231 37.67-6.356 39.787 3.583 1.959 17.881 5.704 22.877-8.425 1.045-2.958.58-6.261.718-9.396.232-5.292 2.338-12.584 8.607-12.5 5.599.074 6.247 5.018 5.557 9.068-.278 1.633.32 3.406 1.892 3.93Z"/><path fill="#fff" d="M167.438 81.4c1.294-1.507 4.135-.866 6.363.318 1.396.742 1.584 2.52.698 3.83-.852 1.262-2.476 1.783-3.802 1.035-2.349-1.326-4.811-3.375-3.259-5.182Z"/><circle r="2" fill="#252D37" transform="rotate(74.627 30.347 155.438)"/></g><path stroke="#252D37" stroke-linecap="round" stroke-width="1.052" d="M169.849 99.945c-1.809 0-9.648-4.347-11.156-11.583"/><path fill="#252D37" d="M195.477 68.138c-9.648 7.84-21.708 4.12-24.723 1.81l3.015-23.518c14.472 7.236 15.377 17.186 21.708 21.708Z"/><path stroke="#252D37" stroke-linecap="round" stroke-width="1.052" d="M168.945 77.128c1.608-.402 5.307-.603 7.236 1.81"/><path fill="#FED337" d="M121.197 168.894c-2.053-.316-7.403-.334-7.947-.686-.544-.353-2.42-5.205-3.67-7.545-1.534 2.986-2.179 7.181-2.785 7.625-1.348.989-8.35 1.935-8.35 1.935 1.936 1.372 6.051 2.542 6.938 3.753.444.605-1.924 7.519-3.125 9.489 1.779-1.59 7.586-5.436 8.408-5.447.823-.012 6 2.726 7.988 3.914-1.171-2.359-2.864-5.81-2.611-7.305.189-1.129 3.863-4.321 5.154-5.733Zm27.825 0c-2.053-.316-7.403-.334-7.947-.686-.544-.353-2.42-5.205-3.67-7.545-1.534 2.986-2.179 7.181-2.785 7.625-1.348.989-8.35 1.935-8.35 1.935 1.936 1.372 6.051 2.542 6.938 3.753.444.605-1.924 7.519-3.125 9.489 1.779-1.59 7.586-5.436 8.408-5.447.823-.012 6 2.726 7.987 3.914-1.17-2.359-2.863-5.81-2.61-7.305.189-1.129 3.863-4.321 5.154-5.733Zm28.772 0c-2.053-.316-7.404-.334-7.948-.686-.544-.353-2.42-5.205-3.67-7.545-1.533 2.986-2.179 7.181-2.784 7.625-1.349.989-8.351 1.935-8.351 1.935 1.936 1.372 6.051 2.542 6.939 3.753.443.605-1.925 7.519-3.125 9.489 1.778-1.59 7.585-5.436 8.408-5.447.822-.012 5.999 2.726 7.987 3.914-1.171-2.359-2.864-5.81-2.611-7.305.189-1.129 3.864-4.321 5.155-5.733Zm28.116 0c-2.052-.316-7.403-.334-7.947-.686-.544-.353-2.42-5.205-3.67-7.545-1.533 2.986-2.179 7.181-2.784 7.625-1.349.989-8.351 1.935-8.351 1.935 1.936 1.372 6.051 2.542 6.938 3.753.444.605-1.924 7.519-3.125 9.489 1.779-1.59 7.586-5.436 8.408-5.447.823-.012 6 2.726 7.988 3.914-1.171-2.359-2.864-5.81-2.611-7.305.189-1.129 3.863-4.321 5.154-5.733Zm28.772 0c-2.053-.316-7.403-.334-7.947-.686-.544-.353-2.42-5.205-3.671-7.545-1.533 2.986-2.179 7.181-2.784 7.625-1.349.989-8.351 1.935-8.351 1.935 1.937 1.372 6.051 2.542 6.939 3.753.443.605-1.925 7.519-3.125 9.489 1.778-1.59 7.586-5.436 8.408-5.447.822-.012 6 2.726 7.987 3.914-1.171-2.359-2.864-5.81-2.611-7.305.19-1.129 3.864-4.321 5.155-5.733Z"/><path stroke="#252D37" stroke-linecap="round" stroke-miterlimit="10" stroke-width="1.403" d="M98.807 197.962c9.459 1.69 109.401-1.69 118.86 0m-116.936 31.25c27.227 0 52.01 0 78.19-.698m-79.238-13.573c8.727 0 22.801-.149 29.671 0 20.8.939 71.208-.88 95.992-2.484"/></svg>